<mxfile host="app.diagrams.net" modified="2020-11-19T03:42:52.199Z" agent="5.0 (Macintosh; Intel Mac OS X 10_14_6) AppleWebKit/537.36 (KHTML, like Gecko) Chrome/86.0.4240.198 Safari/537.36" etag="9gFsBd9w4jiUz2Gm4Sgm" version="13.9.9" type="github">
  <diagram id="vY1WgX3fs-dTL8Az-G79" name="Page-1">
    <mxGraphModel dx="1426" dy="826" grid="1" gridSize="10" guides="1" tooltips="1" connect="1" arrows="1" fold="1" page="1" pageScale="1" pageWidth="1100" pageHeight="850" math="0" shadow="0">
      <root>
        <mxCell id="0" />
        <mxCell id="1" parent="0" />
        <mxCell id="6v7mUeDbz4_MpbBTsxWO-1" value="Crawl" style="shape=table;startSize=30;container=1;collapsible=1;childLayout=tableLayout;fixedRows=1;rowLines=0;fontStyle=1;align=center;resizeLast=1;" vertex="1" parent="1">
          <mxGeometry x="80" y="80" width="240" height="270" as="geometry" />
        </mxCell>
        <mxCell id="6v7mUeDbz4_MpbBTsxWO-2" value="" style="shape=partialRectangle;collapsible=0;dropTarget=0;pointerEvents=0;fillColor=none;top=0;left=0;bottom=1;right=0;points=[[0,0.5],[1,0.5]];portConstraint=eastwest;" vertex="1" parent="6v7mUeDbz4_MpbBTsxWO-1">
          <mxGeometry y="30" width="240" height="30" as="geometry" />
        </mxCell>
        <mxCell id="6v7mUeDbz4_MpbBTsxWO-3" value="PK" style="shape=partialRectangle;connectable=0;fillColor=none;top=0;left=0;bottom=0;right=0;fontStyle=1;overflow=hidden;" vertex="1" parent="6v7mUeDbz4_MpbBTsxWO-2">
          <mxGeometry width="30" height="30" as="geometry" />
        </mxCell>
        <mxCell id="6v7mUeDbz4_MpbBTsxWO-4" value="CID" style="shape=partialRectangle;connectable=0;fillColor=none;top=0;left=0;bottom=0;right=0;align=left;spacingLeft=6;fontStyle=5;overflow=hidden;" vertex="1" parent="6v7mUeDbz4_MpbBTsxWO-2">
          <mxGeometry x="30" width="100" height="30" as="geometry" />
        </mxCell>
        <mxCell id="6v7mUeDbz4_MpbBTsxWO-14" value="INT" style="shape=partialRectangle;connectable=0;fillColor=none;top=0;left=0;bottom=0;right=0;align=left;spacingLeft=6;fontStyle=5;overflow=hidden;" vertex="1" parent="6v7mUeDbz4_MpbBTsxWO-2">
          <mxGeometry x="130" width="110" height="30" as="geometry" />
        </mxCell>
        <mxCell id="6v7mUeDbz4_MpbBTsxWO-5" value="" style="shape=partialRectangle;collapsible=0;dropTarget=0;pointerEvents=0;fillColor=none;top=0;left=0;bottom=0;right=0;points=[[0,0.5],[1,0.5]];portConstraint=eastwest;" vertex="1" parent="6v7mUeDbz4_MpbBTsxWO-1">
          <mxGeometry y="60" width="240" height="30" as="geometry" />
        </mxCell>
        <mxCell id="6v7mUeDbz4_MpbBTsxWO-6" value="" style="shape=partialRectangle;connectable=0;fillColor=none;top=0;left=0;bottom=0;right=0;editable=1;overflow=hidden;" vertex="1" parent="6v7mUeDbz4_MpbBTsxWO-5">
          <mxGeometry width="30" height="30" as="geometry" />
        </mxCell>
        <mxCell id="6v7mUeDbz4_MpbBTsxWO-7" value="starttime" style="shape=partialRectangle;connectable=0;fillColor=none;top=0;left=0;bottom=0;right=0;align=left;spacingLeft=6;overflow=hidden;" vertex="1" parent="6v7mUeDbz4_MpbBTsxWO-5">
          <mxGeometry x="30" width="100" height="30" as="geometry" />
        </mxCell>
        <mxCell id="6v7mUeDbz4_MpbBTsxWO-15" value="DATETIME(6)" style="shape=partialRectangle;connectable=0;fillColor=none;top=0;left=0;bottom=0;right=0;align=left;spacingLeft=6;overflow=hidden;" vertex="1" parent="6v7mUeDbz4_MpbBTsxWO-5">
          <mxGeometry x="130" width="110" height="30" as="geometry" />
        </mxCell>
        <mxCell id="6v7mUeDbz4_MpbBTsxWO-8" value="" style="shape=partialRectangle;collapsible=0;dropTarget=0;pointerEvents=0;fillColor=none;top=0;left=0;bottom=0;right=0;points=[[0,0.5],[1,0.5]];portConstraint=eastwest;" vertex="1" parent="6v7mUeDbz4_MpbBTsxWO-1">
          <mxGeometry y="90" width="240" height="30" as="geometry" />
        </mxCell>
        <mxCell id="6v7mUeDbz4_MpbBTsxWO-9" value="" style="shape=partialRectangle;connectable=0;fillColor=none;top=0;left=0;bottom=0;right=0;editable=1;overflow=hidden;" vertex="1" parent="6v7mUeDbz4_MpbBTsxWO-8">
          <mxGeometry width="30" height="30" as="geometry" />
        </mxCell>
        <mxCell id="6v7mUeDbz4_MpbBTsxWO-10" value="endtime" style="shape=partialRectangle;connectable=0;fillColor=none;top=0;left=0;bottom=0;right=0;align=left;spacingLeft=6;overflow=hidden;" vertex="1" parent="6v7mUeDbz4_MpbBTsxWO-8">
          <mxGeometry x="30" width="100" height="30" as="geometry" />
        </mxCell>
        <mxCell id="6v7mUeDbz4_MpbBTsxWO-16" value="DATETIME(6)" style="shape=partialRectangle;connectable=0;fillColor=none;top=0;left=0;bottom=0;right=0;align=left;spacingLeft=6;overflow=hidden;" vertex="1" parent="6v7mUeDbz4_MpbBTsxWO-8">
          <mxGeometry x="130" width="110" height="30" as="geometry" />
        </mxCell>
        <mxCell id="6v7mUeDbz4_MpbBTsxWO-11" value="" style="shape=partialRectangle;collapsible=0;dropTarget=0;pointerEvents=0;fillColor=none;top=0;left=0;bottom=0;right=0;points=[[0,0.5],[1,0.5]];portConstraint=eastwest;" vertex="1" parent="6v7mUeDbz4_MpbBTsxWO-1">
          <mxGeometry y="120" width="240" height="30" as="geometry" />
        </mxCell>
        <mxCell id="6v7mUeDbz4_MpbBTsxWO-12" value="" style="shape=partialRectangle;connectable=0;fillColor=none;top=0;left=0;bottom=0;right=0;editable=1;overflow=hidden;" vertex="1" parent="6v7mUeDbz4_MpbBTsxWO-11">
          <mxGeometry width="30" height="30" as="geometry" />
        </mxCell>
        <mxCell id="6v7mUeDbz4_MpbBTsxWO-13" value="nLevels" style="shape=partialRectangle;connectable=0;fillColor=none;top=0;left=0;bottom=0;right=0;align=left;spacingLeft=6;overflow=hidden;" vertex="1" parent="6v7mUeDbz4_MpbBTsxWO-11">
          <mxGeometry x="30" width="100" height="30" as="geometry" />
        </mxCell>
        <mxCell id="6v7mUeDbz4_MpbBTsxWO-17" value="INT" style="shape=partialRectangle;connectable=0;fillColor=none;top=0;left=0;bottom=0;right=0;align=left;spacingLeft=6;overflow=hidden;" vertex="1" parent="6v7mUeDbz4_MpbBTsxWO-11">
          <mxGeometry x="130" width="110" height="30" as="geometry" />
        </mxCell>
        <mxCell id="6v7mUeDbz4_MpbBTsxWO-18" value="" style="shape=partialRectangle;collapsible=0;dropTarget=0;pointerEvents=0;fillColor=none;top=0;left=0;bottom=0;right=0;points=[[0,0.5],[1,0.5]];portConstraint=eastwest;" vertex="1" parent="6v7mUeDbz4_MpbBTsxWO-1">
          <mxGeometry y="150" width="240" height="30" as="geometry" />
        </mxCell>
        <mxCell id="6v7mUeDbz4_MpbBTsxWO-19" value="FK" style="shape=partialRectangle;connectable=0;fillColor=none;top=0;left=0;bottom=0;right=0;editable=1;overflow=hidden;" vertex="1" parent="6v7mUeDbz4_MpbBTsxWO-18">
          <mxGeometry width="30" height="30" as="geometry" />
        </mxCell>
        <mxCell id="6v7mUeDbz4_MpbBTsxWO-20" value="rootWID" style="shape=partialRectangle;connectable=0;fillColor=none;top=0;left=0;bottom=0;right=0;align=left;spacingLeft=6;overflow=hidden;" vertex="1" parent="6v7mUeDbz4_MpbBTsxWO-18">
          <mxGeometry x="30" width="100" height="30" as="geometry" />
        </mxCell>
        <mxCell id="6v7mUeDbz4_MpbBTsxWO-21" value="INT" style="shape=partialRectangle;connectable=0;fillColor=none;top=0;left=0;bottom=0;right=0;align=left;spacingLeft=6;overflow=hidden;" vertex="1" parent="6v7mUeDbz4_MpbBTsxWO-18">
          <mxGeometry x="130" width="110" height="30" as="geometry" />
        </mxCell>
        <mxCell id="6v7mUeDbz4_MpbBTsxWO-22" value="" style="shape=partialRectangle;collapsible=0;dropTarget=0;pointerEvents=0;fillColor=none;top=0;left=0;bottom=0;right=0;points=[[0,0.5],[1,0.5]];portConstraint=eastwest;" vertex="1" parent="6v7mUeDbz4_MpbBTsxWO-1">
          <mxGeometry y="180" width="240" height="30" as="geometry" />
        </mxCell>
        <mxCell id="6v7mUeDbz4_MpbBTsxWO-23" value="AC" style="shape=partialRectangle;connectable=0;fillColor=none;top=0;left=0;bottom=0;right=0;editable=1;overflow=hidden;" vertex="1" parent="6v7mUeDbz4_MpbBTsxWO-22">
          <mxGeometry width="30" height="30" as="geometry" />
        </mxCell>
        <mxCell id="6v7mUeDbz4_MpbBTsxWO-24" value="created_at" style="shape=partialRectangle;connectable=0;fillColor=none;top=0;left=0;bottom=0;right=0;align=left;spacingLeft=6;overflow=hidden;" vertex="1" parent="6v7mUeDbz4_MpbBTsxWO-22">
          <mxGeometry x="30" width="100" height="30" as="geometry" />
        </mxCell>
        <mxCell id="6v7mUeDbz4_MpbBTsxWO-25" value="TIMESTAMP(6)" style="shape=partialRectangle;connectable=0;fillColor=none;top=0;left=0;bottom=0;right=0;align=left;spacingLeft=6;overflow=hidden;" vertex="1" parent="6v7mUeDbz4_MpbBTsxWO-22">
          <mxGeometry x="130" width="110" height="30" as="geometry" />
        </mxCell>
        <mxCell id="6v7mUeDbz4_MpbBTsxWO-26" value="" style="shape=partialRectangle;collapsible=0;dropTarget=0;pointerEvents=0;fillColor=none;top=0;left=0;bottom=0;right=0;points=[[0,0.5],[1,0.5]];portConstraint=eastwest;" vertex="1" parent="6v7mUeDbz4_MpbBTsxWO-1">
          <mxGeometry y="210" width="240" height="30" as="geometry" />
        </mxCell>
        <mxCell id="6v7mUeDbz4_MpbBTsxWO-27" value="AU" style="shape=partialRectangle;connectable=0;fillColor=none;top=0;left=0;bottom=0;right=0;editable=1;overflow=hidden;" vertex="1" parent="6v7mUeDbz4_MpbBTsxWO-26">
          <mxGeometry width="30" height="30" as="geometry" />
        </mxCell>
        <mxCell id="6v7mUeDbz4_MpbBTsxWO-28" value="updated_at" style="shape=partialRectangle;connectable=0;fillColor=none;top=0;left=0;bottom=0;right=0;align=left;spacingLeft=6;overflow=hidden;" vertex="1" parent="6v7mUeDbz4_MpbBTsxWO-26">
          <mxGeometry x="30" width="100" height="30" as="geometry" />
        </mxCell>
        <mxCell id="6v7mUeDbz4_MpbBTsxWO-29" value="TIMESTAMP(6)" style="shape=partialRectangle;connectable=0;fillColor=none;top=0;left=0;bottom=0;right=0;align=left;spacingLeft=6;overflow=hidden;" vertex="1" parent="6v7mUeDbz4_MpbBTsxWO-26">
          <mxGeometry x="130" width="110" height="30" as="geometry" />
        </mxCell>
        <mxCell id="6v7mUeDbz4_MpbBTsxWO-30" value="" style="shape=partialRectangle;collapsible=0;dropTarget=0;pointerEvents=0;fillColor=none;top=0;left=0;bottom=0;right=0;points=[[0,0.5],[1,0.5]];portConstraint=eastwest;" vertex="1" parent="6v7mUeDbz4_MpbBTsxWO-1">
          <mxGeometry y="240" width="240" height="30" as="geometry" />
        </mxCell>
        <mxCell id="6v7mUeDbz4_MpbBTsxWO-31" value="" style="shape=partialRectangle;connectable=0;fillColor=none;top=0;left=0;bottom=0;right=0;editable=1;overflow=hidden;" vertex="1" parent="6v7mUeDbz4_MpbBTsxWO-30">
          <mxGeometry width="30" height="30" as="geometry" />
        </mxCell>
        <mxCell id="6v7mUeDbz4_MpbBTsxWO-32" value="access" style="shape=partialRectangle;connectable=0;fillColor=none;top=0;left=0;bottom=0;right=0;align=left;spacingLeft=6;overflow=hidden;" vertex="1" parent="6v7mUeDbz4_MpbBTsxWO-30">
          <mxGeometry x="30" width="100" height="30" as="geometry" />
        </mxCell>
        <mxCell id="6v7mUeDbz4_MpbBTsxWO-33" value="BOOLEAN" style="shape=partialRectangle;connectable=0;fillColor=none;top=0;left=0;bottom=0;right=0;align=left;spacingLeft=6;overflow=hidden;" vertex="1" parent="6v7mUeDbz4_MpbBTsxWO-30">
          <mxGeometry x="130" width="110" height="30" as="geometry" />
        </mxCell>
        <mxCell id="6v7mUeDbz4_MpbBTsxWO-34" value="Webpage" style="shape=table;startSize=30;container=1;collapsible=1;childLayout=tableLayout;fixedRows=1;rowLines=0;fontStyle=1;align=center;resizeLast=1;" vertex="1" parent="1">
          <mxGeometry x="80" y="400" width="240" height="270" as="geometry" />
        </mxCell>
        <mxCell id="6v7mUeDbz4_MpbBTsxWO-35" value="" style="shape=partialRectangle;collapsible=0;dropTarget=0;pointerEvents=0;fillColor=none;top=0;left=0;bottom=1;right=0;points=[[0,0.5],[1,0.5]];portConstraint=eastwest;" vertex="1" parent="6v7mUeDbz4_MpbBTsxWO-34">
          <mxGeometry y="30" width="240" height="30" as="geometry" />
        </mxCell>
        <mxCell id="6v7mUeDbz4_MpbBTsxWO-36" value="PK" style="shape=partialRectangle;connectable=0;fillColor=none;top=0;left=0;bottom=0;right=0;fontStyle=1;overflow=hidden;" vertex="1" parent="6v7mUeDbz4_MpbBTsxWO-35">
          <mxGeometry width="30" height="30" as="geometry" />
        </mxCell>
        <mxCell id="6v7mUeDbz4_MpbBTsxWO-37" value="WID" style="shape=partialRectangle;connectable=0;fillColor=none;top=0;left=0;bottom=0;right=0;align=left;spacingLeft=6;fontStyle=5;overflow=hidden;" vertex="1" parent="6v7mUeDbz4_MpbBTsxWO-35">
          <mxGeometry x="30" width="100" height="30" as="geometry" />
        </mxCell>
        <mxCell id="6v7mUeDbz4_MpbBTsxWO-38" value="INT" style="shape=partialRectangle;connectable=0;fillColor=none;top=0;left=0;bottom=0;right=0;align=left;spacingLeft=6;fontStyle=5;overflow=hidden;" vertex="1" parent="6v7mUeDbz4_MpbBTsxWO-35">
          <mxGeometry x="130" width="110" height="30" as="geometry" />
        </mxCell>
        <mxCell id="6v7mUeDbz4_MpbBTsxWO-39" value="" style="shape=partialRectangle;collapsible=0;dropTarget=0;pointerEvents=0;fillColor=none;top=0;left=0;bottom=0;right=0;points=[[0,0.5],[1,0.5]];portConstraint=eastwest;" vertex="1" parent="6v7mUeDbz4_MpbBTsxWO-34">
          <mxGeometry y="60" width="240" height="30" as="geometry" />
        </mxCell>
        <mxCell id="6v7mUeDbz4_MpbBTsxWO-40" value="" style="shape=partialRectangle;connectable=0;fillColor=none;top=0;left=0;bottom=0;right=0;editable=1;overflow=hidden;" vertex="1" parent="6v7mUeDbz4_MpbBTsxWO-39">
          <mxGeometry width="30" height="30" as="geometry" />
        </mxCell>
        <mxCell id="6v7mUeDbz4_MpbBTsxWO-41" value="url" style="shape=partialRectangle;connectable=0;fillColor=none;top=0;left=0;bottom=0;right=0;align=left;spacingLeft=6;overflow=hidden;" vertex="1" parent="6v7mUeDbz4_MpbBTsxWO-39">
          <mxGeometry x="30" width="100" height="30" as="geometry" />
        </mxCell>
        <mxCell id="6v7mUeDbz4_MpbBTsxWO-42" value="VARCHAR(2048)" style="shape=partialRectangle;connectable=0;fillColor=none;top=0;left=0;bottom=0;right=0;align=left;spacingLeft=6;overflow=hidden;" vertex="1" parent="6v7mUeDbz4_MpbBTsxWO-39">
          <mxGeometry x="130" width="110" height="30" as="geometry" />
        </mxCell>
        <mxCell id="6v7mUeDbz4_MpbBTsxWO-43" value="" style="shape=partialRectangle;collapsible=0;dropTarget=0;pointerEvents=0;fillColor=none;top=0;left=0;bottom=0;right=0;points=[[0,0.5],[1,0.5]];portConstraint=eastwest;" vertex="1" parent="6v7mUeDbz4_MpbBTsxWO-34">
          <mxGeometry y="90" width="240" height="30" as="geometry" />
        </mxCell>
        <mxCell id="6v7mUeDbz4_MpbBTsxWO-44" value="" style="shape=partialRectangle;connectable=0;fillColor=none;top=0;left=0;bottom=0;right=0;editable=1;overflow=hidden;" vertex="1" parent="6v7mUeDbz4_MpbBTsxWO-43">
          <mxGeometry width="30" height="30" as="geometry" />
        </mxCell>
        <mxCell id="6v7mUeDbz4_MpbBTsxWO-45" value="newCID" style="shape=partialRectangle;connectable=0;fillColor=none;top=0;left=0;bottom=0;right=0;align=left;spacingLeft=6;overflow=hidden;" vertex="1" parent="6v7mUeDbz4_MpbBTsxWO-43">
          <mxGeometry x="30" width="100" height="30" as="geometry" />
        </mxCell>
        <mxCell id="6v7mUeDbz4_MpbBTsxWO-46" value="INT" style="shape=partialRectangle;connectable=0;fillColor=none;top=0;left=0;bottom=0;right=0;align=left;spacingLeft=6;overflow=hidden;" vertex="1" parent="6v7mUeDbz4_MpbBTsxWO-43">
          <mxGeometry x="130" width="110" height="30" as="geometry" />
        </mxCell>
        <mxCell id="6v7mUeDbz4_MpbBTsxWO-47" value="" style="shape=partialRectangle;collapsible=0;dropTarget=0;pointerEvents=0;fillColor=none;top=0;left=0;bottom=0;right=0;points=[[0,0.5],[1,0.5]];portConstraint=eastwest;" vertex="1" parent="6v7mUeDbz4_MpbBTsxWO-34">
          <mxGeometry y="120" width="240" height="30" as="geometry" />
        </mxCell>
        <mxCell id="6v7mUeDbz4_MpbBTsxWO-48" value="" style="shape=partialRectangle;connectable=0;fillColor=none;top=0;left=0;bottom=0;right=0;editable=1;overflow=hidden;" vertex="1" parent="6v7mUeDbz4_MpbBTsxWO-47">
          <mxGeometry width="30" height="30" as="geometry" />
        </mxCell>
        <mxCell id="6v7mUeDbz4_MpbBTsxWO-49" value="mined" style="shape=partialRectangle;connectable=0;fillColor=none;top=0;left=0;bottom=0;right=0;align=left;spacingLeft=6;overflow=hidden;" vertex="1" parent="6v7mUeDbz4_MpbBTsxWO-47">
          <mxGeometry x="30" width="100" height="30" as="geometry" />
        </mxCell>
        <mxCell id="6v7mUeDbz4_MpbBTsxWO-50" value="BOOLEAN" style="shape=partialRectangle;connectable=0;fillColor=none;top=0;left=0;bottom=0;right=0;align=left;spacingLeft=6;overflow=hidden;" vertex="1" parent="6v7mUeDbz4_MpbBTsxWO-47">
          <mxGeometry x="130" width="110" height="30" as="geometry" />
        </mxCell>
        <mxCell id="6v7mUeDbz4_MpbBTsxWO-51" value="" style="shape=partialRectangle;collapsible=0;dropTarget=0;pointerEvents=0;fillColor=none;top=0;left=0;bottom=0;right=0;points=[[0,0.5],[1,0.5]];portConstraint=eastwest;" vertex="1" parent="6v7mUeDbz4_MpbBTsxWO-34">
          <mxGeometry y="150" width="240" height="30" as="geometry" />
        </mxCell>
        <mxCell id="6v7mUeDbz4_MpbBTsxWO-52" value="FK" style="shape=partialRectangle;connectable=0;fillColor=none;top=0;left=0;bottom=0;right=0;editable=1;overflow=hidden;" vertex="1" parent="6v7mUeDbz4_MpbBTsxWO-51">
          <mxGeometry width="30" height="30" as="geometry" />
        </mxCell>
        <mxCell id="6v7mUeDbz4_MpbBTsxWO-53" value="rootWID" style="shape=partialRectangle;connectable=0;fillColor=none;top=0;left=0;bottom=0;right=0;align=left;spacingLeft=6;overflow=hidden;" vertex="1" parent="6v7mUeDbz4_MpbBTsxWO-51">
          <mxGeometry x="30" width="100" height="30" as="geometry" />
        </mxCell>
        <mxCell id="6v7mUeDbz4_MpbBTsxWO-54" value="INT" style="shape=partialRectangle;connectable=0;fillColor=none;top=0;left=0;bottom=0;right=0;align=left;spacingLeft=6;overflow=hidden;" vertex="1" parent="6v7mUeDbz4_MpbBTsxWO-51">
          <mxGeometry x="130" width="110" height="30" as="geometry" />
        </mxCell>
        <mxCell id="6v7mUeDbz4_MpbBTsxWO-55" value="" style="shape=partialRectangle;collapsible=0;dropTarget=0;pointerEvents=0;fillColor=none;top=0;left=0;bottom=0;right=0;points=[[0,0.5],[1,0.5]];portConstraint=eastwest;" vertex="1" parent="6v7mUeDbz4_MpbBTsxWO-34">
          <mxGeometry y="180" width="240" height="30" as="geometry" />
        </mxCell>
        <mxCell id="6v7mUeDbz4_MpbBTsxWO-56" value="AC" style="shape=partialRectangle;connectable=0;fillColor=none;top=0;left=0;bottom=0;right=0;editable=1;overflow=hidden;" vertex="1" parent="6v7mUeDbz4_MpbBTsxWO-55">
          <mxGeometry width="30" height="30" as="geometry" />
        </mxCell>
        <mxCell id="6v7mUeDbz4_MpbBTsxWO-57" value="created_at" style="shape=partialRectangle;connectable=0;fillColor=none;top=0;left=0;bottom=0;right=0;align=left;spacingLeft=6;overflow=hidden;" vertex="1" parent="6v7mUeDbz4_MpbBTsxWO-55">
          <mxGeometry x="30" width="100" height="30" as="geometry" />
        </mxCell>
        <mxCell id="6v7mUeDbz4_MpbBTsxWO-58" value="TIMESTAMP(6)" style="shape=partialRectangle;connectable=0;fillColor=none;top=0;left=0;bottom=0;right=0;align=left;spacingLeft=6;overflow=hidden;" vertex="1" parent="6v7mUeDbz4_MpbBTsxWO-55">
          <mxGeometry x="130" width="110" height="30" as="geometry" />
        </mxCell>
        <mxCell id="6v7mUeDbz4_MpbBTsxWO-59" value="" style="shape=partialRectangle;collapsible=0;dropTarget=0;pointerEvents=0;fillColor=none;top=0;left=0;bottom=0;right=0;points=[[0,0.5],[1,0.5]];portConstraint=eastwest;" vertex="1" parent="6v7mUeDbz4_MpbBTsxWO-34">
          <mxGeometry y="210" width="240" height="30" as="geometry" />
        </mxCell>
        <mxCell id="6v7mUeDbz4_MpbBTsxWO-60" value="AU" style="shape=partialRectangle;connectable=0;fillColor=none;top=0;left=0;bottom=0;right=0;editable=1;overflow=hidden;" vertex="1" parent="6v7mUeDbz4_MpbBTsxWO-59">
          <mxGeometry width="30" height="30" as="geometry" />
        </mxCell>
        <mxCell id="6v7mUeDbz4_MpbBTsxWO-61" value="updated_at" style="shape=partialRectangle;connectable=0;fillColor=none;top=0;left=0;bottom=0;right=0;align=left;spacingLeft=6;overflow=hidden;" vertex="1" parent="6v7mUeDbz4_MpbBTsxWO-59">
          <mxGeometry x="30" width="100" height="30" as="geometry" />
        </mxCell>
        <mxCell id="6v7mUeDbz4_MpbBTsxWO-62" value="TIMESTAMP(6)" style="shape=partialRectangle;connectable=0;fillColor=none;top=0;left=0;bottom=0;right=0;align=left;spacingLeft=6;overflow=hidden;" vertex="1" parent="6v7mUeDbz4_MpbBTsxWO-59">
          <mxGeometry x="130" width="110" height="30" as="geometry" />
        </mxCell>
        <mxCell id="6v7mUeDbz4_MpbBTsxWO-63" value="" style="shape=partialRectangle;collapsible=0;dropTarget=0;pointerEvents=0;fillColor=none;top=0;left=0;bottom=0;right=0;points=[[0,0.5],[1,0.5]];portConstraint=eastwest;" vertex="1" parent="6v7mUeDbz4_MpbBTsxWO-34">
          <mxGeometry y="240" width="240" height="30" as="geometry" />
        </mxCell>
        <mxCell id="6v7mUeDbz4_MpbBTsxWO-64" value="" style="shape=partialRectangle;connectable=0;fillColor=none;top=0;left=0;bottom=0;right=0;editable=1;overflow=hidden;" vertex="1" parent="6v7mUeDbz4_MpbBTsxWO-63">
          <mxGeometry width="30" height="30" as="geometry" />
        </mxCell>
        <mxCell id="6v7mUeDbz4_MpbBTsxWO-65" value="access" style="shape=partialRectangle;connectable=0;fillColor=none;top=0;left=0;bottom=0;right=0;align=left;spacingLeft=6;overflow=hidden;" vertex="1" parent="6v7mUeDbz4_MpbBTsxWO-63">
          <mxGeometry x="30" width="100" height="30" as="geometry" />
        </mxCell>
        <mxCell id="6v7mUeDbz4_MpbBTsxWO-66" value="BOOLEAN" style="shape=partialRectangle;connectable=0;fillColor=none;top=0;left=0;bottom=0;right=0;align=left;spacingLeft=6;overflow=hidden;" vertex="1" parent="6v7mUeDbz4_MpbBTsxWO-63">
          <mxGeometry x="130" width="110" height="30" as="geometry" />
        </mxCell>
        <mxCell id="6v7mUeDbz4_MpbBTsxWO-68" style="edgeStyle=orthogonalEdgeStyle;orthogonalLoop=1;jettySize=auto;html=1;startArrow=ERmandOne;startFill=0;endArrow=ERoneToMany;endFill=0;rounded=1;" edge="1" parent="1" source="6v7mUeDbz4_MpbBTsxWO-35" target="6v7mUeDbz4_MpbBTsxWO-18">
          <mxGeometry relative="1" as="geometry">
            <mxPoint x="60" y="460" as="sourcePoint" />
            <Array as="points">
              <mxPoint x="60" y="445" />
              <mxPoint x="60" y="245" />
            </Array>
          </mxGeometry>
        </mxCell>
        <mxCell id="6v7mUeDbz4_MpbBTsxWO-70" style="edgeStyle=orthogonalEdgeStyle;orthogonalLoop=1;jettySize=auto;html=1;startArrow=ERmandOne;startFill=0;endArrow=ERoneToMany;endFill=0;rounded=1;" edge="1" parent="1" source="6v7mUeDbz4_MpbBTsxWO-2" target="6v7mUeDbz4_MpbBTsxWO-51">
          <mxGeometry relative="1" as="geometry">
            <Array as="points">
              <mxPoint x="40" y="125" />
              <mxPoint x="40" y="565" />
            </Array>
          </mxGeometry>
        </mxCell>
        <mxCell id="6v7mUeDbz4_MpbBTsxWO-71" value="Observation" style="shape=table;startSize=30;container=1;collapsible=1;childLayout=tableLayout;fixedRows=1;rowLines=0;fontStyle=1;align=center;resizeLast=1;rounded=1;" vertex="1" parent="1">
          <mxGeometry x="400" y="80" width="240" height="270" as="geometry" />
        </mxCell>
        <mxCell id="6v7mUeDbz4_MpbBTsxWO-72" value="" style="shape=partialRectangle;collapsible=0;dropTarget=0;pointerEvents=0;fillColor=none;top=0;left=0;bottom=1;right=0;points=[[0,0.5],[1,0.5]];portConstraint=eastwest;" vertex="1" parent="6v7mUeDbz4_MpbBTsxWO-71">
          <mxGeometry y="30" width="240" height="30" as="geometry" />
        </mxCell>
        <mxCell id="6v7mUeDbz4_MpbBTsxWO-73" value="PK" style="shape=partialRectangle;connectable=0;fillColor=none;top=0;left=0;bottom=0;right=0;fontStyle=1;overflow=hidden;" vertex="1" parent="6v7mUeDbz4_MpbBTsxWO-72">
          <mxGeometry width="30" height="30" as="geometry" />
        </mxCell>
        <mxCell id="6v7mUeDbz4_MpbBTsxWO-74" value="OID" style="shape=partialRectangle;connectable=0;fillColor=none;top=0;left=0;bottom=0;right=0;align=left;spacingLeft=6;fontStyle=5;overflow=hidden;" vertex="1" parent="6v7mUeDbz4_MpbBTsxWO-72">
          <mxGeometry x="30" width="100" height="30" as="geometry" />
        </mxCell>
        <mxCell id="6v7mUeDbz4_MpbBTsxWO-75" value="INT" style="shape=partialRectangle;connectable=0;fillColor=none;top=0;left=0;bottom=0;right=0;align=left;spacingLeft=6;fontStyle=5;overflow=hidden;" vertex="1" parent="6v7mUeDbz4_MpbBTsxWO-72">
          <mxGeometry x="130" width="110" height="30" as="geometry" />
        </mxCell>
        <mxCell id="6v7mUeDbz4_MpbBTsxWO-76" value="" style="shape=partialRectangle;collapsible=0;dropTarget=0;pointerEvents=0;fillColor=none;top=0;left=0;bottom=0;right=0;points=[[0,0.5],[1,0.5]];portConstraint=eastwest;" vertex="1" parent="6v7mUeDbz4_MpbBTsxWO-71">
          <mxGeometry y="60" width="240" height="30" as="geometry" />
        </mxCell>
        <mxCell id="6v7mUeDbz4_MpbBTsxWO-77" value="FK" style="shape=partialRectangle;connectable=0;fillColor=none;top=0;left=0;bottom=0;right=0;editable=1;overflow=hidden;" vertex="1" parent="6v7mUeDbz4_MpbBTsxWO-76">
          <mxGeometry width="30" height="30" as="geometry" />
        </mxCell>
        <mxCell id="6v7mUeDbz4_MpbBTsxWO-78" value="CID" style="shape=partialRectangle;connectable=0;fillColor=none;top=0;left=0;bottom=0;right=0;align=left;spacingLeft=6;overflow=hidden;" vertex="1" parent="6v7mUeDbz4_MpbBTsxWO-76">
          <mxGeometry x="30" width="100" height="30" as="geometry" />
        </mxCell>
        <mxCell id="6v7mUeDbz4_MpbBTsxWO-79" value="INT" style="shape=partialRectangle;connectable=0;fillColor=none;top=0;left=0;bottom=0;right=0;align=left;spacingLeft=6;overflow=hidden;" vertex="1" parent="6v7mUeDbz4_MpbBTsxWO-76">
          <mxGeometry x="130" width="110" height="30" as="geometry" />
        </mxCell>
        <mxCell id="6v7mUeDbz4_MpbBTsxWO-80" value="" style="shape=partialRectangle;collapsible=0;dropTarget=0;pointerEvents=0;fillColor=none;top=0;left=0;bottom=0;right=0;points=[[0,0.5],[1,0.5]];portConstraint=eastwest;" vertex="1" parent="6v7mUeDbz4_MpbBTsxWO-71">
          <mxGeometry y="90" width="240" height="30" as="geometry" />
        </mxCell>
        <mxCell id="6v7mUeDbz4_MpbBTsxWO-81" value="FK" style="shape=partialRectangle;connectable=0;fillColor=none;top=0;left=0;bottom=0;right=0;editable=1;overflow=hidden;" vertex="1" parent="6v7mUeDbz4_MpbBTsxWO-80">
          <mxGeometry width="30" height="30" as="geometry" />
        </mxCell>
        <mxCell id="6v7mUeDbz4_MpbBTsxWO-82" value="WID" style="shape=partialRectangle;connectable=0;fillColor=none;top=0;left=0;bottom=0;right=0;align=left;spacingLeft=6;overflow=hidden;" vertex="1" parent="6v7mUeDbz4_MpbBTsxWO-80">
          <mxGeometry x="30" width="100" height="30" as="geometry" />
        </mxCell>
        <mxCell id="6v7mUeDbz4_MpbBTsxWO-83" value="INT" style="shape=partialRectangle;connectable=0;fillColor=none;top=0;left=0;bottom=0;right=0;align=left;spacingLeft=6;overflow=hidden;" vertex="1" parent="6v7mUeDbz4_MpbBTsxWO-80">
          <mxGeometry x="130" width="110" height="30" as="geometry" />
        </mxCell>
        <mxCell id="6v7mUeDbz4_MpbBTsxWO-84" value="" style="shape=partialRectangle;collapsible=0;dropTarget=0;pointerEvents=0;fillColor=none;top=0;left=0;bottom=0;right=0;points=[[0,0.5],[1,0.5]];portConstraint=eastwest;" vertex="1" parent="6v7mUeDbz4_MpbBTsxWO-71">
          <mxGeometry y="120" width="240" height="30" as="geometry" />
        </mxCell>
        <mxCell id="6v7mUeDbz4_MpbBTsxWO-85" value="" style="shape=partialRectangle;connectable=0;fillColor=none;top=0;left=0;bottom=0;right=0;editable=1;overflow=hidden;" vertex="1" parent="6v7mUeDbz4_MpbBTsxWO-84">
          <mxGeometry width="30" height="30" as="geometry" />
        </mxCell>
        <mxCell id="6v7mUeDbz4_MpbBTsxWO-86" value="http" style="shape=partialRectangle;connectable=0;fillColor=none;top=0;left=0;bottom=0;right=0;align=left;spacingLeft=6;overflow=hidden;" vertex="1" parent="6v7mUeDbz4_MpbBTsxWO-84">
          <mxGeometry x="30" width="100" height="30" as="geometry" />
        </mxCell>
        <mxCell id="6v7mUeDbz4_MpbBTsxWO-87" value="INT" style="shape=partialRectangle;connectable=0;fillColor=none;top=0;left=0;bottom=0;right=0;align=left;spacingLeft=6;overflow=hidden;" vertex="1" parent="6v7mUeDbz4_MpbBTsxWO-84">
          <mxGeometry x="130" width="110" height="30" as="geometry" />
        </mxCell>
        <mxCell id="6v7mUeDbz4_MpbBTsxWO-88" value="" style="shape=partialRectangle;collapsible=0;dropTarget=0;pointerEvents=0;fillColor=none;top=0;left=0;bottom=0;right=0;points=[[0,0.5],[1,0.5]];portConstraint=eastwest;" vertex="1" parent="6v7mUeDbz4_MpbBTsxWO-71">
          <mxGeometry y="150" width="240" height="30" as="geometry" />
        </mxCell>
        <mxCell id="6v7mUeDbz4_MpbBTsxWO-89" value="" style="shape=partialRectangle;connectable=0;fillColor=none;top=0;left=0;bottom=0;right=0;editable=1;overflow=hidden;" vertex="1" parent="6v7mUeDbz4_MpbBTsxWO-88">
          <mxGeometry width="30" height="30" as="geometry" />
        </mxCell>
        <mxCell id="6v7mUeDbz4_MpbBTsxWO-90" value="html" style="shape=partialRectangle;connectable=0;fillColor=none;top=0;left=0;bottom=0;right=0;align=left;spacingLeft=6;overflow=hidden;" vertex="1" parent="6v7mUeDbz4_MpbBTsxWO-88">
          <mxGeometry x="30" width="100" height="30" as="geometry" />
        </mxCell>
        <mxCell id="6v7mUeDbz4_MpbBTsxWO-91" value="LONGTEXT" style="shape=partialRectangle;connectable=0;fillColor=none;top=0;left=0;bottom=0;right=0;align=left;spacingLeft=6;overflow=hidden;" vertex="1" parent="6v7mUeDbz4_MpbBTsxWO-88">
          <mxGeometry x="130" width="110" height="30" as="geometry" />
        </mxCell>
        <mxCell id="6v7mUeDbz4_MpbBTsxWO-92" value="" style="shape=partialRectangle;collapsible=0;dropTarget=0;pointerEvents=0;fillColor=none;top=0;left=0;bottom=0;right=0;points=[[0,0.5],[1,0.5]];portConstraint=eastwest;" vertex="1" parent="6v7mUeDbz4_MpbBTsxWO-71">
          <mxGeometry y="180" width="240" height="30" as="geometry" />
        </mxCell>
        <mxCell id="6v7mUeDbz4_MpbBTsxWO-93" value="AC" style="shape=partialRectangle;connectable=0;fillColor=none;top=0;left=0;bottom=0;right=0;editable=1;overflow=hidden;" vertex="1" parent="6v7mUeDbz4_MpbBTsxWO-92">
          <mxGeometry width="30" height="30" as="geometry" />
        </mxCell>
        <mxCell id="6v7mUeDbz4_MpbBTsxWO-94" value="created_at" style="shape=partialRectangle;connectable=0;fillColor=none;top=0;left=0;bottom=0;right=0;align=left;spacingLeft=6;overflow=hidden;" vertex="1" parent="6v7mUeDbz4_MpbBTsxWO-92">
          <mxGeometry x="30" width="100" height="30" as="geometry" />
        </mxCell>
        <mxCell id="6v7mUeDbz4_MpbBTsxWO-95" value="TIMESTAMP(6)" style="shape=partialRectangle;connectable=0;fillColor=none;top=0;left=0;bottom=0;right=0;align=left;spacingLeft=6;overflow=hidden;" vertex="1" parent="6v7mUeDbz4_MpbBTsxWO-92">
          <mxGeometry x="130" width="110" height="30" as="geometry" />
        </mxCell>
        <mxCell id="6v7mUeDbz4_MpbBTsxWO-96" value="" style="shape=partialRectangle;collapsible=0;dropTarget=0;pointerEvents=0;fillColor=none;top=0;left=0;bottom=0;right=0;points=[[0,0.5],[1,0.5]];portConstraint=eastwest;" vertex="1" parent="6v7mUeDbz4_MpbBTsxWO-71">
          <mxGeometry y="210" width="240" height="30" as="geometry" />
        </mxCell>
        <mxCell id="6v7mUeDbz4_MpbBTsxWO-97" value="AU" style="shape=partialRectangle;connectable=0;fillColor=none;top=0;left=0;bottom=0;right=0;editable=1;overflow=hidden;" vertex="1" parent="6v7mUeDbz4_MpbBTsxWO-96">
          <mxGeometry width="30" height="30" as="geometry" />
        </mxCell>
        <mxCell id="6v7mUeDbz4_MpbBTsxWO-98" value="updated_at" style="shape=partialRectangle;connectable=0;fillColor=none;top=0;left=0;bottom=0;right=0;align=left;spacingLeft=6;overflow=hidden;" vertex="1" parent="6v7mUeDbz4_MpbBTsxWO-96">
          <mxGeometry x="30" width="100" height="30" as="geometry" />
        </mxCell>
        <mxCell id="6v7mUeDbz4_MpbBTsxWO-99" value="TIMESTAMP(6)" style="shape=partialRectangle;connectable=0;fillColor=none;top=0;left=0;bottom=0;right=0;align=left;spacingLeft=6;overflow=hidden;" vertex="1" parent="6v7mUeDbz4_MpbBTsxWO-96">
          <mxGeometry x="130" width="110" height="30" as="geometry" />
        </mxCell>
        <mxCell id="6v7mUeDbz4_MpbBTsxWO-100" value="" style="shape=partialRectangle;collapsible=0;dropTarget=0;pointerEvents=0;fillColor=none;top=0;left=0;bottom=0;right=0;points=[[0,0.5],[1,0.5]];portConstraint=eastwest;" vertex="1" parent="6v7mUeDbz4_MpbBTsxWO-71">
          <mxGeometry y="240" width="240" height="30" as="geometry" />
        </mxCell>
        <mxCell id="6v7mUeDbz4_MpbBTsxWO-101" value="" style="shape=partialRectangle;connectable=0;fillColor=none;top=0;left=0;bottom=0;right=0;editable=1;overflow=hidden;" vertex="1" parent="6v7mUeDbz4_MpbBTsxWO-100">
          <mxGeometry width="30" height="30" as="geometry" />
        </mxCell>
        <mxCell id="6v7mUeDbz4_MpbBTsxWO-102" value="access" style="shape=partialRectangle;connectable=0;fillColor=none;top=0;left=0;bottom=0;right=0;align=left;spacingLeft=6;overflow=hidden;" vertex="1" parent="6v7mUeDbz4_MpbBTsxWO-100">
          <mxGeometry x="30" width="100" height="30" as="geometry" />
        </mxCell>
        <mxCell id="6v7mUeDbz4_MpbBTsxWO-103" value="BOOLEAN" style="shape=partialRectangle;connectable=0;fillColor=none;top=0;left=0;bottom=0;right=0;align=left;spacingLeft=6;overflow=hidden;" vertex="1" parent="6v7mUeDbz4_MpbBTsxWO-100">
          <mxGeometry x="130" width="110" height="30" as="geometry" />
        </mxCell>
        <mxCell id="6v7mUeDbz4_MpbBTsxWO-104" style="edgeStyle=orthogonalEdgeStyle;rounded=1;orthogonalLoop=1;jettySize=auto;html=1;startArrow=ERmandOne;startFill=0;endArrow=ERoneToMany;endFill=0;" edge="1" parent="1" source="6v7mUeDbz4_MpbBTsxWO-76" target="6v7mUeDbz4_MpbBTsxWO-2">
          <mxGeometry relative="1" as="geometry" />
        </mxCell>
        <mxCell id="6v7mUeDbz4_MpbBTsxWO-105" style="edgeStyle=orthogonalEdgeStyle;rounded=1;orthogonalLoop=1;jettySize=auto;html=1;startArrow=ERmandOne;startFill=0;endArrow=ERoneToMany;endFill=0;" edge="1" parent="1" source="6v7mUeDbz4_MpbBTsxWO-80" target="6v7mUeDbz4_MpbBTsxWO-35">
          <mxGeometry relative="1" as="geometry" />
        </mxCell>
        <mxCell id="6v7mUeDbz4_MpbBTsxWO-106" value="Link" style="shape=table;startSize=30;container=1;collapsible=1;childLayout=tableLayout;fixedRows=1;rowLines=0;fontStyle=1;align=center;resizeLast=1;" vertex="1" parent="1">
          <mxGeometry x="400" y="400" width="240" height="240" as="geometry" />
        </mxCell>
        <mxCell id="6v7mUeDbz4_MpbBTsxWO-107" value="" style="shape=partialRectangle;collapsible=0;dropTarget=0;pointerEvents=0;fillColor=none;top=0;left=0;bottom=1;right=0;points=[[0,0.5],[1,0.5]];portConstraint=eastwest;" vertex="1" parent="6v7mUeDbz4_MpbBTsxWO-106">
          <mxGeometry y="30" width="240" height="30" as="geometry" />
        </mxCell>
        <mxCell id="6v7mUeDbz4_MpbBTsxWO-108" value="PK" style="shape=partialRectangle;connectable=0;fillColor=none;top=0;left=0;bottom=0;right=0;fontStyle=1;overflow=hidden;" vertex="1" parent="6v7mUeDbz4_MpbBTsxWO-107">
          <mxGeometry width="30" height="30" as="geometry" />
        </mxCell>
        <mxCell id="6v7mUeDbz4_MpbBTsxWO-109" value="LID" style="shape=partialRectangle;connectable=0;fillColor=none;top=0;left=0;bottom=0;right=0;align=left;spacingLeft=6;fontStyle=5;overflow=hidden;" vertex="1" parent="6v7mUeDbz4_MpbBTsxWO-107">
          <mxGeometry x="30" width="100" height="30" as="geometry" />
        </mxCell>
        <mxCell id="6v7mUeDbz4_MpbBTsxWO-110" value="INT" style="shape=partialRectangle;connectable=0;fillColor=none;top=0;left=0;bottom=0;right=0;align=left;spacingLeft=6;fontStyle=5;overflow=hidden;" vertex="1" parent="6v7mUeDbz4_MpbBTsxWO-107">
          <mxGeometry x="130" width="110" height="30" as="geometry" />
        </mxCell>
        <mxCell id="6v7mUeDbz4_MpbBTsxWO-111" value="" style="shape=partialRectangle;collapsible=0;dropTarget=0;pointerEvents=0;fillColor=none;top=0;left=0;bottom=0;right=0;points=[[0,0.5],[1,0.5]];portConstraint=eastwest;" vertex="1" parent="6v7mUeDbz4_MpbBTsxWO-106">
          <mxGeometry y="60" width="240" height="30" as="geometry" />
        </mxCell>
        <mxCell id="6v7mUeDbz4_MpbBTsxWO-112" value="FK" style="shape=partialRectangle;connectable=0;fillColor=none;top=0;left=0;bottom=0;right=0;editable=1;overflow=hidden;" vertex="1" parent="6v7mUeDbz4_MpbBTsxWO-111">
          <mxGeometry width="30" height="30" as="geometry" />
        </mxCell>
        <mxCell id="6v7mUeDbz4_MpbBTsxWO-113" value="fromWID" style="shape=partialRectangle;connectable=0;fillColor=none;top=0;left=0;bottom=0;right=0;align=left;spacingLeft=6;overflow=hidden;" vertex="1" parent="6v7mUeDbz4_MpbBTsxWO-111">
          <mxGeometry x="30" width="100" height="30" as="geometry" />
        </mxCell>
        <mxCell id="6v7mUeDbz4_MpbBTsxWO-114" value="INT" style="shape=partialRectangle;connectable=0;fillColor=none;top=0;left=0;bottom=0;right=0;align=left;spacingLeft=6;overflow=hidden;" vertex="1" parent="6v7mUeDbz4_MpbBTsxWO-111">
          <mxGeometry x="130" width="110" height="30" as="geometry" />
        </mxCell>
        <mxCell id="6v7mUeDbz4_MpbBTsxWO-115" value="" style="shape=partialRectangle;collapsible=0;dropTarget=0;pointerEvents=0;fillColor=none;top=0;left=0;bottom=0;right=0;points=[[0,0.5],[1,0.5]];portConstraint=eastwest;" vertex="1" parent="6v7mUeDbz4_MpbBTsxWO-106">
          <mxGeometry y="90" width="240" height="30" as="geometry" />
        </mxCell>
        <mxCell id="6v7mUeDbz4_MpbBTsxWO-116" value="FK" style="shape=partialRectangle;connectable=0;fillColor=none;top=0;left=0;bottom=0;right=0;editable=1;overflow=hidden;" vertex="1" parent="6v7mUeDbz4_MpbBTsxWO-115">
          <mxGeometry width="30" height="30" as="geometry" />
        </mxCell>
        <mxCell id="6v7mUeDbz4_MpbBTsxWO-117" value="toWID" style="shape=partialRectangle;connectable=0;fillColor=none;top=0;left=0;bottom=0;right=0;align=left;spacingLeft=6;overflow=hidden;" vertex="1" parent="6v7mUeDbz4_MpbBTsxWO-115">
          <mxGeometry x="30" width="100" height="30" as="geometry" />
        </mxCell>
        <mxCell id="6v7mUeDbz4_MpbBTsxWO-118" value="INT" style="shape=partialRectangle;connectable=0;fillColor=none;top=0;left=0;bottom=0;right=0;align=left;spacingLeft=6;overflow=hidden;" vertex="1" parent="6v7mUeDbz4_MpbBTsxWO-115">
          <mxGeometry x="130" width="110" height="30" as="geometry" />
        </mxCell>
        <mxCell id="6v7mUeDbz4_MpbBTsxWO-123" value="" style="shape=partialRectangle;collapsible=0;dropTarget=0;pointerEvents=0;fillColor=none;top=0;left=0;bottom=0;right=0;points=[[0,0.5],[1,0.5]];portConstraint=eastwest;" vertex="1" parent="6v7mUeDbz4_MpbBTsxWO-106">
          <mxGeometry y="120" width="240" height="30" as="geometry" />
        </mxCell>
        <mxCell id="6v7mUeDbz4_MpbBTsxWO-124" value="FK" style="shape=partialRectangle;connectable=0;fillColor=none;top=0;left=0;bottom=0;right=0;editable=1;overflow=hidden;" vertex="1" parent="6v7mUeDbz4_MpbBTsxWO-123">
          <mxGeometry width="30" height="30" as="geometry" />
        </mxCell>
        <mxCell id="6v7mUeDbz4_MpbBTsxWO-125" value="rootWID" style="shape=partialRectangle;connectable=0;fillColor=none;top=0;left=0;bottom=0;right=0;align=left;spacingLeft=6;overflow=hidden;" vertex="1" parent="6v7mUeDbz4_MpbBTsxWO-123">
          <mxGeometry x="30" width="100" height="30" as="geometry" />
        </mxCell>
        <mxCell id="6v7mUeDbz4_MpbBTsxWO-126" value="INT" style="shape=partialRectangle;connectable=0;fillColor=none;top=0;left=0;bottom=0;right=0;align=left;spacingLeft=6;overflow=hidden;" vertex="1" parent="6v7mUeDbz4_MpbBTsxWO-123">
          <mxGeometry x="130" width="110" height="30" as="geometry" />
        </mxCell>
        <mxCell id="6v7mUeDbz4_MpbBTsxWO-127" value="" style="shape=partialRectangle;collapsible=0;dropTarget=0;pointerEvents=0;fillColor=none;top=0;left=0;bottom=0;right=0;points=[[0,0.5],[1,0.5]];portConstraint=eastwest;" vertex="1" parent="6v7mUeDbz4_MpbBTsxWO-106">
          <mxGeometry y="150" width="240" height="30" as="geometry" />
        </mxCell>
        <mxCell id="6v7mUeDbz4_MpbBTsxWO-128" value="AC" style="shape=partialRectangle;connectable=0;fillColor=none;top=0;left=0;bottom=0;right=0;editable=1;overflow=hidden;" vertex="1" parent="6v7mUeDbz4_MpbBTsxWO-127">
          <mxGeometry width="30" height="30" as="geometry" />
        </mxCell>
        <mxCell id="6v7mUeDbz4_MpbBTsxWO-129" value="created_at" style="shape=partialRectangle;connectable=0;fillColor=none;top=0;left=0;bottom=0;right=0;align=left;spacingLeft=6;overflow=hidden;" vertex="1" parent="6v7mUeDbz4_MpbBTsxWO-127">
          <mxGeometry x="30" width="100" height="30" as="geometry" />
        </mxCell>
        <mxCell id="6v7mUeDbz4_MpbBTsxWO-130" value="TIMESTAMP(6)" style="shape=partialRectangle;connectable=0;fillColor=none;top=0;left=0;bottom=0;right=0;align=left;spacingLeft=6;overflow=hidden;" vertex="1" parent="6v7mUeDbz4_MpbBTsxWO-127">
          <mxGeometry x="130" width="110" height="30" as="geometry" />
        </mxCell>
        <mxCell id="6v7mUeDbz4_MpbBTsxWO-131" value="" style="shape=partialRectangle;collapsible=0;dropTarget=0;pointerEvents=0;fillColor=none;top=0;left=0;bottom=0;right=0;points=[[0,0.5],[1,0.5]];portConstraint=eastwest;" vertex="1" parent="6v7mUeDbz4_MpbBTsxWO-106">
          <mxGeometry y="180" width="240" height="30" as="geometry" />
        </mxCell>
        <mxCell id="6v7mUeDbz4_MpbBTsxWO-132" value="AU" style="shape=partialRectangle;connectable=0;fillColor=none;top=0;left=0;bottom=0;right=0;editable=1;overflow=hidden;" vertex="1" parent="6v7mUeDbz4_MpbBTsxWO-131">
          <mxGeometry width="30" height="30" as="geometry" />
        </mxCell>
        <mxCell id="6v7mUeDbz4_MpbBTsxWO-133" value="updated_at" style="shape=partialRectangle;connectable=0;fillColor=none;top=0;left=0;bottom=0;right=0;align=left;spacingLeft=6;overflow=hidden;" vertex="1" parent="6v7mUeDbz4_MpbBTsxWO-131">
          <mxGeometry x="30" width="100" height="30" as="geometry" />
        </mxCell>
        <mxCell id="6v7mUeDbz4_MpbBTsxWO-134" value="TIMESTAMP(6)" style="shape=partialRectangle;connectable=0;fillColor=none;top=0;left=0;bottom=0;right=0;align=left;spacingLeft=6;overflow=hidden;" vertex="1" parent="6v7mUeDbz4_MpbBTsxWO-131">
          <mxGeometry x="130" width="110" height="30" as="geometry" />
        </mxCell>
        <mxCell id="6v7mUeDbz4_MpbBTsxWO-135" value="" style="shape=partialRectangle;collapsible=0;dropTarget=0;pointerEvents=0;fillColor=none;top=0;left=0;bottom=0;right=0;points=[[0,0.5],[1,0.5]];portConstraint=eastwest;" vertex="1" parent="6v7mUeDbz4_MpbBTsxWO-106">
          <mxGeometry y="210" width="240" height="30" as="geometry" />
        </mxCell>
        <mxCell id="6v7mUeDbz4_MpbBTsxWO-136" value="" style="shape=partialRectangle;connectable=0;fillColor=none;top=0;left=0;bottom=0;right=0;editable=1;overflow=hidden;" vertex="1" parent="6v7mUeDbz4_MpbBTsxWO-135">
          <mxGeometry width="30" height="30" as="geometry" />
        </mxCell>
        <mxCell id="6v7mUeDbz4_MpbBTsxWO-137" value="access" style="shape=partialRectangle;connectable=0;fillColor=none;top=0;left=0;bottom=0;right=0;align=left;spacingLeft=6;overflow=hidden;" vertex="1" parent="6v7mUeDbz4_MpbBTsxWO-135">
          <mxGeometry x="30" width="100" height="30" as="geometry" />
        </mxCell>
        <mxCell id="6v7mUeDbz4_MpbBTsxWO-138" value="BOOLEAN" style="shape=partialRectangle;connectable=0;fillColor=none;top=0;left=0;bottom=0;right=0;align=left;spacingLeft=6;overflow=hidden;" vertex="1" parent="6v7mUeDbz4_MpbBTsxWO-135">
          <mxGeometry x="130" width="110" height="30" as="geometry" />
        </mxCell>
        <mxCell id="6v7mUeDbz4_MpbBTsxWO-139" style="edgeStyle=orthogonalEdgeStyle;rounded=1;orthogonalLoop=1;jettySize=auto;html=1;startArrow=ERmandOne;startFill=0;endArrow=ERoneToMany;endFill=0;" edge="1" parent="1" source="6v7mUeDbz4_MpbBTsxWO-111" target="6v7mUeDbz4_MpbBTsxWO-35">
          <mxGeometry relative="1" as="geometry">
            <Array as="points">
              <mxPoint x="360" y="475" />
              <mxPoint x="360" y="445" />
            </Array>
          </mxGeometry>
        </mxCell>
        <mxCell id="6v7mUeDbz4_MpbBTsxWO-140" style="edgeStyle=orthogonalEdgeStyle;rounded=1;orthogonalLoop=1;jettySize=auto;html=1;startArrow=ERmandOne;startFill=0;endArrow=ERoneToMany;endFill=0;" edge="1" parent="1" source="6v7mUeDbz4_MpbBTsxWO-115" target="6v7mUeDbz4_MpbBTsxWO-35">
          <mxGeometry relative="1" as="geometry">
            <mxPoint x="320" y="440" as="targetPoint" />
            <Array as="points">
              <mxPoint x="360" y="505" />
              <mxPoint x="360" y="445" />
            </Array>
          </mxGeometry>
        </mxCell>
        <mxCell id="6v7mUeDbz4_MpbBTsxWO-141" value="Stem" style="shape=table;startSize=30;container=1;collapsible=1;childLayout=tableLayout;fixedRows=1;rowLines=0;fontStyle=1;align=center;resizeLast=1;shadow=0;sketch=0;" vertex="1" parent="1">
          <mxGeometry x="720" y="400" width="240" height="150" as="geometry" />
        </mxCell>
        <mxCell id="6v7mUeDbz4_MpbBTsxWO-142" value="" style="shape=partialRectangle;collapsible=0;dropTarget=0;pointerEvents=0;fillColor=none;top=0;left=0;bottom=1;right=0;points=[[0,0.5],[1,0.5]];portConstraint=eastwest;" vertex="1" parent="6v7mUeDbz4_MpbBTsxWO-141">
          <mxGeometry y="30" width="240" height="30" as="geometry" />
        </mxCell>
        <mxCell id="6v7mUeDbz4_MpbBTsxWO-143" value="PK" style="shape=partialRectangle;connectable=0;fillColor=none;top=0;left=0;bottom=0;right=0;fontStyle=1;overflow=hidden;" vertex="1" parent="6v7mUeDbz4_MpbBTsxWO-142">
          <mxGeometry width="30" height="30" as="geometry" />
        </mxCell>
        <mxCell id="6v7mUeDbz4_MpbBTsxWO-144" value="stem" style="shape=partialRectangle;connectable=0;fillColor=none;top=0;left=0;bottom=0;right=0;align=left;spacingLeft=6;fontStyle=5;overflow=hidden;" vertex="1" parent="6v7mUeDbz4_MpbBTsxWO-142">
          <mxGeometry x="30" width="100" height="30" as="geometry" />
        </mxCell>
        <mxCell id="6v7mUeDbz4_MpbBTsxWO-145" value="VARCHAR(25)" style="shape=partialRectangle;connectable=0;fillColor=none;top=0;left=0;bottom=0;right=0;align=left;spacingLeft=6;fontStyle=0;overflow=hidden;" vertex="1" parent="6v7mUeDbz4_MpbBTsxWO-142">
          <mxGeometry x="130" width="110" height="30" as="geometry" />
        </mxCell>
        <mxCell id="6v7mUeDbz4_MpbBTsxWO-158" value="" style="shape=partialRectangle;collapsible=0;dropTarget=0;pointerEvents=0;fillColor=none;top=0;left=0;bottom=0;right=0;points=[[0,0.5],[1,0.5]];portConstraint=eastwest;" vertex="1" parent="6v7mUeDbz4_MpbBTsxWO-141">
          <mxGeometry y="60" width="240" height="30" as="geometry" />
        </mxCell>
        <mxCell id="6v7mUeDbz4_MpbBTsxWO-159" value="AC" style="shape=partialRectangle;connectable=0;fillColor=none;top=0;left=0;bottom=0;right=0;editable=1;overflow=hidden;" vertex="1" parent="6v7mUeDbz4_MpbBTsxWO-158">
          <mxGeometry width="30" height="30" as="geometry" />
        </mxCell>
        <mxCell id="6v7mUeDbz4_MpbBTsxWO-160" value="created_at" style="shape=partialRectangle;connectable=0;fillColor=none;top=0;left=0;bottom=0;right=0;align=left;spacingLeft=6;overflow=hidden;" vertex="1" parent="6v7mUeDbz4_MpbBTsxWO-158">
          <mxGeometry x="30" width="100" height="30" as="geometry" />
        </mxCell>
        <mxCell id="6v7mUeDbz4_MpbBTsxWO-161" value="TIMESTAMP(6)" style="shape=partialRectangle;connectable=0;fillColor=none;top=0;left=0;bottom=0;right=0;align=left;spacingLeft=6;overflow=hidden;" vertex="1" parent="6v7mUeDbz4_MpbBTsxWO-158">
          <mxGeometry x="130" width="110" height="30" as="geometry" />
        </mxCell>
        <mxCell id="6v7mUeDbz4_MpbBTsxWO-162" value="" style="shape=partialRectangle;collapsible=0;dropTarget=0;pointerEvents=0;fillColor=none;top=0;left=0;bottom=0;right=0;points=[[0,0.5],[1,0.5]];portConstraint=eastwest;" vertex="1" parent="6v7mUeDbz4_MpbBTsxWO-141">
          <mxGeometry y="90" width="240" height="30" as="geometry" />
        </mxCell>
        <mxCell id="6v7mUeDbz4_MpbBTsxWO-163" value="AU" style="shape=partialRectangle;connectable=0;fillColor=none;top=0;left=0;bottom=0;right=0;editable=1;overflow=hidden;" vertex="1" parent="6v7mUeDbz4_MpbBTsxWO-162">
          <mxGeometry width="30" height="30" as="geometry" />
        </mxCell>
        <mxCell id="6v7mUeDbz4_MpbBTsxWO-164" value="updated_at" style="shape=partialRectangle;connectable=0;fillColor=none;top=0;left=0;bottom=0;right=0;align=left;spacingLeft=6;overflow=hidden;" vertex="1" parent="6v7mUeDbz4_MpbBTsxWO-162">
          <mxGeometry x="30" width="100" height="30" as="geometry" />
        </mxCell>
        <mxCell id="6v7mUeDbz4_MpbBTsxWO-165" value="TIMESTAMP(6)" style="shape=partialRectangle;connectable=0;fillColor=none;top=0;left=0;bottom=0;right=0;align=left;spacingLeft=6;overflow=hidden;" vertex="1" parent="6v7mUeDbz4_MpbBTsxWO-162">
          <mxGeometry x="130" width="110" height="30" as="geometry" />
        </mxCell>
        <mxCell id="6v7mUeDbz4_MpbBTsxWO-166" value="" style="shape=partialRectangle;collapsible=0;dropTarget=0;pointerEvents=0;fillColor=none;top=0;left=0;bottom=0;right=0;points=[[0,0.5],[1,0.5]];portConstraint=eastwest;" vertex="1" parent="6v7mUeDbz4_MpbBTsxWO-141">
          <mxGeometry y="120" width="240" height="30" as="geometry" />
        </mxCell>
        <mxCell id="6v7mUeDbz4_MpbBTsxWO-167" value="" style="shape=partialRectangle;connectable=0;fillColor=none;top=0;left=0;bottom=0;right=0;editable=1;overflow=hidden;" vertex="1" parent="6v7mUeDbz4_MpbBTsxWO-166">
          <mxGeometry width="30" height="30" as="geometry" />
        </mxCell>
        <mxCell id="6v7mUeDbz4_MpbBTsxWO-168" value="access" style="shape=partialRectangle;connectable=0;fillColor=none;top=0;left=0;bottom=0;right=0;align=left;spacingLeft=6;overflow=hidden;" vertex="1" parent="6v7mUeDbz4_MpbBTsxWO-166">
          <mxGeometry x="30" width="100" height="30" as="geometry" />
        </mxCell>
        <mxCell id="6v7mUeDbz4_MpbBTsxWO-169" value="BOOLEAN" style="shape=partialRectangle;connectable=0;fillColor=none;top=0;left=0;bottom=0;right=0;align=left;spacingLeft=6;overflow=hidden;" vertex="1" parent="6v7mUeDbz4_MpbBTsxWO-166">
          <mxGeometry x="130" width="110" height="30" as="geometry" />
        </mxCell>
        <mxCell id="6v7mUeDbz4_MpbBTsxWO-170" value="Word" style="shape=table;startSize=30;container=1;collapsible=1;childLayout=tableLayout;fixedRows=1;rowLines=0;fontStyle=1;align=center;resizeLast=1;rounded=1;" vertex="1" parent="1">
          <mxGeometry x="720" y="80" width="240" height="240" as="geometry" />
        </mxCell>
        <mxCell id="6v7mUeDbz4_MpbBTsxWO-171" value="" style="shape=partialRectangle;collapsible=0;dropTarget=0;pointerEvents=0;fillColor=none;top=0;left=0;bottom=1;right=0;points=[[0,0.5],[1,0.5]];portConstraint=eastwest;" vertex="1" parent="6v7mUeDbz4_MpbBTsxWO-170">
          <mxGeometry y="30" width="240" height="30" as="geometry" />
        </mxCell>
        <mxCell id="6v7mUeDbz4_MpbBTsxWO-172" value="PK" style="shape=partialRectangle;connectable=0;fillColor=none;top=0;left=0;bottom=0;right=0;fontStyle=1;overflow=hidden;" vertex="1" parent="6v7mUeDbz4_MpbBTsxWO-171">
          <mxGeometry width="30" height="30" as="geometry" />
        </mxCell>
        <mxCell id="6v7mUeDbz4_MpbBTsxWO-173" value="RID" style="shape=partialRectangle;connectable=0;fillColor=none;top=0;left=0;bottom=0;right=0;align=left;spacingLeft=6;fontStyle=5;overflow=hidden;" vertex="1" parent="6v7mUeDbz4_MpbBTsxWO-171">
          <mxGeometry x="30" width="100" height="30" as="geometry" />
        </mxCell>
        <mxCell id="6v7mUeDbz4_MpbBTsxWO-174" value="INT" style="shape=partialRectangle;connectable=0;fillColor=none;top=0;left=0;bottom=0;right=0;align=left;spacingLeft=6;fontStyle=5;overflow=hidden;" vertex="1" parent="6v7mUeDbz4_MpbBTsxWO-171">
          <mxGeometry x="130" width="110" height="30" as="geometry" />
        </mxCell>
        <mxCell id="6v7mUeDbz4_MpbBTsxWO-187" style="shape=partialRectangle;collapsible=0;dropTarget=0;pointerEvents=0;fillColor=none;top=0;left=0;bottom=0;right=0;points=[[0,0.5],[1,0.5]];portConstraint=eastwest;" vertex="1" parent="6v7mUeDbz4_MpbBTsxWO-170">
          <mxGeometry y="60" width="240" height="30" as="geometry" />
        </mxCell>
        <mxCell id="6v7mUeDbz4_MpbBTsxWO-188" value="FK" style="shape=partialRectangle;connectable=0;fillColor=none;top=0;left=0;bottom=0;right=0;editable=1;overflow=hidden;" vertex="1" parent="6v7mUeDbz4_MpbBTsxWO-187">
          <mxGeometry width="30" height="30" as="geometry" />
        </mxCell>
        <mxCell id="6v7mUeDbz4_MpbBTsxWO-189" value="OID" style="shape=partialRectangle;connectable=0;fillColor=none;top=0;left=0;bottom=0;right=0;align=left;spacingLeft=6;overflow=hidden;" vertex="1" parent="6v7mUeDbz4_MpbBTsxWO-187">
          <mxGeometry x="30" width="100" height="30" as="geometry" />
        </mxCell>
        <mxCell id="6v7mUeDbz4_MpbBTsxWO-190" value="INT" style="shape=partialRectangle;connectable=0;fillColor=none;top=0;left=0;bottom=0;right=0;align=left;spacingLeft=6;overflow=hidden;" vertex="1" parent="6v7mUeDbz4_MpbBTsxWO-187">
          <mxGeometry x="130" width="110" height="30" as="geometry" />
        </mxCell>
        <mxCell id="6v7mUeDbz4_MpbBTsxWO-195" style="shape=partialRectangle;collapsible=0;dropTarget=0;pointerEvents=0;fillColor=none;top=0;left=0;bottom=0;right=0;points=[[0,0.5],[1,0.5]];portConstraint=eastwest;" vertex="1" parent="6v7mUeDbz4_MpbBTsxWO-170">
          <mxGeometry y="90" width="240" height="30" as="geometry" />
        </mxCell>
        <mxCell id="6v7mUeDbz4_MpbBTsxWO-196" value="FK" style="shape=partialRectangle;connectable=0;fillColor=none;top=0;left=0;bottom=0;right=0;editable=1;overflow=hidden;" vertex="1" parent="6v7mUeDbz4_MpbBTsxWO-195">
          <mxGeometry width="30" height="30" as="geometry" />
        </mxCell>
        <mxCell id="6v7mUeDbz4_MpbBTsxWO-197" value="stem" style="shape=partialRectangle;connectable=0;fillColor=none;top=0;left=0;bottom=0;right=0;align=left;spacingLeft=6;overflow=hidden;" vertex="1" parent="6v7mUeDbz4_MpbBTsxWO-195">
          <mxGeometry x="30" width="100" height="30" as="geometry" />
        </mxCell>
        <mxCell id="6v7mUeDbz4_MpbBTsxWO-198" value="VARCHAR(25)" style="shape=partialRectangle;connectable=0;fillColor=none;top=0;left=0;bottom=0;right=0;align=left;spacingLeft=6;overflow=hidden;" vertex="1" parent="6v7mUeDbz4_MpbBTsxWO-195">
          <mxGeometry x="130" width="110" height="30" as="geometry" />
        </mxCell>
        <mxCell id="6v7mUeDbz4_MpbBTsxWO-202" style="shape=partialRectangle;collapsible=0;dropTarget=0;pointerEvents=0;fillColor=none;top=0;left=0;bottom=0;right=0;points=[[0,0.5],[1,0.5]];portConstraint=eastwest;" vertex="1" parent="6v7mUeDbz4_MpbBTsxWO-170">
          <mxGeometry y="120" width="240" height="30" as="geometry" />
        </mxCell>
        <mxCell id="6v7mUeDbz4_MpbBTsxWO-203" value="" style="shape=partialRectangle;connectable=0;fillColor=none;top=0;left=0;bottom=0;right=0;editable=1;overflow=hidden;" vertex="1" parent="6v7mUeDbz4_MpbBTsxWO-202">
          <mxGeometry width="30" height="30" as="geometry" />
        </mxCell>
        <mxCell id="6v7mUeDbz4_MpbBTsxWO-204" value="pos" style="shape=partialRectangle;connectable=0;fillColor=none;top=0;left=0;bottom=0;right=0;align=left;spacingLeft=6;overflow=hidden;" vertex="1" parent="6v7mUeDbz4_MpbBTsxWO-202">
          <mxGeometry x="30" width="100" height="30" as="geometry" />
        </mxCell>
        <mxCell id="6v7mUeDbz4_MpbBTsxWO-205" value="INT" style="shape=partialRectangle;connectable=0;fillColor=none;top=0;left=0;bottom=0;right=0;align=left;spacingLeft=6;overflow=hidden;" vertex="1" parent="6v7mUeDbz4_MpbBTsxWO-202">
          <mxGeometry x="130" width="110" height="30" as="geometry" />
        </mxCell>
        <mxCell id="6v7mUeDbz4_MpbBTsxWO-175" value="" style="shape=partialRectangle;collapsible=0;dropTarget=0;pointerEvents=0;fillColor=none;top=0;left=0;bottom=0;right=0;points=[[0,0.5],[1,0.5]];portConstraint=eastwest;" vertex="1" parent="6v7mUeDbz4_MpbBTsxWO-170">
          <mxGeometry y="150" width="240" height="30" as="geometry" />
        </mxCell>
        <mxCell id="6v7mUeDbz4_MpbBTsxWO-176" value="AC" style="shape=partialRectangle;connectable=0;fillColor=none;top=0;left=0;bottom=0;right=0;editable=1;overflow=hidden;" vertex="1" parent="6v7mUeDbz4_MpbBTsxWO-175">
          <mxGeometry width="30" height="30" as="geometry" />
        </mxCell>
        <mxCell id="6v7mUeDbz4_MpbBTsxWO-177" value="created_at" style="shape=partialRectangle;connectable=0;fillColor=none;top=0;left=0;bottom=0;right=0;align=left;spacingLeft=6;overflow=hidden;" vertex="1" parent="6v7mUeDbz4_MpbBTsxWO-175">
          <mxGeometry x="30" width="100" height="30" as="geometry" />
        </mxCell>
        <mxCell id="6v7mUeDbz4_MpbBTsxWO-178" value="TIMESTAMP(6)" style="shape=partialRectangle;connectable=0;fillColor=none;top=0;left=0;bottom=0;right=0;align=left;spacingLeft=6;overflow=hidden;" vertex="1" parent="6v7mUeDbz4_MpbBTsxWO-175">
          <mxGeometry x="130" width="110" height="30" as="geometry" />
        </mxCell>
        <mxCell id="6v7mUeDbz4_MpbBTsxWO-179" value="" style="shape=partialRectangle;collapsible=0;dropTarget=0;pointerEvents=0;fillColor=none;top=0;left=0;bottom=0;right=0;points=[[0,0.5],[1,0.5]];portConstraint=eastwest;" vertex="1" parent="6v7mUeDbz4_MpbBTsxWO-170">
          <mxGeometry y="180" width="240" height="30" as="geometry" />
        </mxCell>
        <mxCell id="6v7mUeDbz4_MpbBTsxWO-180" value="AU" style="shape=partialRectangle;connectable=0;fillColor=none;top=0;left=0;bottom=0;right=0;editable=1;overflow=hidden;" vertex="1" parent="6v7mUeDbz4_MpbBTsxWO-179">
          <mxGeometry width="30" height="30" as="geometry" />
        </mxCell>
        <mxCell id="6v7mUeDbz4_MpbBTsxWO-181" value="updated_at" style="shape=partialRectangle;connectable=0;fillColor=none;top=0;left=0;bottom=0;right=0;align=left;spacingLeft=6;overflow=hidden;" vertex="1" parent="6v7mUeDbz4_MpbBTsxWO-179">
          <mxGeometry x="30" width="100" height="30" as="geometry" />
        </mxCell>
        <mxCell id="6v7mUeDbz4_MpbBTsxWO-182" value="TIMESTAMP(6)" style="shape=partialRectangle;connectable=0;fillColor=none;top=0;left=0;bottom=0;right=0;align=left;spacingLeft=6;overflow=hidden;" vertex="1" parent="6v7mUeDbz4_MpbBTsxWO-179">
          <mxGeometry x="130" width="110" height="30" as="geometry" />
        </mxCell>
        <mxCell id="6v7mUeDbz4_MpbBTsxWO-183" value="" style="shape=partialRectangle;collapsible=0;dropTarget=0;pointerEvents=0;fillColor=none;top=0;left=0;bottom=0;right=0;points=[[0,0.5],[1,0.5]];portConstraint=eastwest;" vertex="1" parent="6v7mUeDbz4_MpbBTsxWO-170">
          <mxGeometry y="210" width="240" height="30" as="geometry" />
        </mxCell>
        <mxCell id="6v7mUeDbz4_MpbBTsxWO-184" value="" style="shape=partialRectangle;connectable=0;fillColor=none;top=0;left=0;bottom=0;right=0;editable=1;overflow=hidden;" vertex="1" parent="6v7mUeDbz4_MpbBTsxWO-183">
          <mxGeometry width="30" height="30" as="geometry" />
        </mxCell>
        <mxCell id="6v7mUeDbz4_MpbBTsxWO-185" value="access" style="shape=partialRectangle;connectable=0;fillColor=none;top=0;left=0;bottom=0;right=0;align=left;spacingLeft=6;overflow=hidden;" vertex="1" parent="6v7mUeDbz4_MpbBTsxWO-183">
          <mxGeometry x="30" width="100" height="30" as="geometry" />
        </mxCell>
        <mxCell id="6v7mUeDbz4_MpbBTsxWO-186" value="BOOLEAN" style="shape=partialRectangle;connectable=0;fillColor=none;top=0;left=0;bottom=0;right=0;align=left;spacingLeft=6;overflow=hidden;" vertex="1" parent="6v7mUeDbz4_MpbBTsxWO-183">
          <mxGeometry x="130" width="110" height="30" as="geometry" />
        </mxCell>
        <mxCell id="6v7mUeDbz4_MpbBTsxWO-200" style="edgeStyle=orthogonalEdgeStyle;rounded=1;orthogonalLoop=1;jettySize=auto;html=1;startArrow=ERmandOne;startFill=0;endArrow=ERoneToMany;endFill=0;" edge="1" parent="1" source="6v7mUeDbz4_MpbBTsxWO-72" target="6v7mUeDbz4_MpbBTsxWO-187">
          <mxGeometry relative="1" as="geometry" />
        </mxCell>
        <mxCell id="6v7mUeDbz4_MpbBTsxWO-201" style="edgeStyle=orthogonalEdgeStyle;rounded=1;orthogonalLoop=1;jettySize=auto;html=1;startArrow=ERmandOne;startFill=0;endArrow=ERoneToMany;endFill=0;" edge="1" parent="1" source="6v7mUeDbz4_MpbBTsxWO-195" target="6v7mUeDbz4_MpbBTsxWO-142">
          <mxGeometry relative="1" as="geometry">
            <Array as="points">
              <mxPoint x="700" y="185" />
              <mxPoint x="700" y="445" />
            </Array>
          </mxGeometry>
        </mxCell>
      </root>
    </mxGraphModel>
  </diagram>
</mxfile>
